<svg width="1024" height="1024" xmlns="http://www.w3.org/2000/svg" class="icon">
 <defs>
  <style type="text/css">@font-face { font-family: feedback-iconfont; src: url("//at.alicdn.com/t/font_1031158_u69w8yhxdu.woff2?t=1630033759944") format("woff2"), url("//at.alicdn.com/t/font_1031158_u69w8yhxdu.woff?t=1630033759944") format("woff"), url("//at.alicdn.com/t/font_1031158_u69w8yhxdu.ttf?t=1630033759944") format("truetype"); }</style>
 </defs>
 <g>
  <title>background</title>
  <rect fill="none" id="canvas_background" height="1026" width="1026" y="-1" x="-1"/>
 </g>
 <g>
  <title>Layer 1</title>
  <path id="svg_1" d="m323.65195,852.47273l-76.8,-125.67273l-97.74545,0l0,-512l742.4,0l0,514.32727l-500.36364,0l-67.49091,123.34546zm-128,-172.21818l76.8,0l48.87273,79.12727l41.89091,-79.12727l479.41818,0l0,-418.90909l-646.98182,0l0,418.90909z" fill="#C48157"/>
  <path stroke="null" id="svg_2" d="m368.23843,370.07273l416.3252,0l0,54.0546l-453.89087,0l0,-54.0546l37.56567,0zm-32.47236,156.75837l359.69373,0l0,54.0546l-359.69373,0l0,-54.0546z" fill="#C48157"/>
  <path d="m346.64288,326.42856c0,2.14285 -3.68512,4.76923 -7.14288,12.14285c-3.70184,7.8941 -8.99829,12.58331 -12.85712,20c-4.02429,7.73471 -6.28391,12.27502 -7.14288,15c-2.62128,8.31561 -5,12.14285 -5,15c0,5 -1.57983,12.30331 0,20c1.09378,5.32877 8.77002,12.71829 14.28574,17.14285c7.26465,5.82748 27.85712,5 40,5c10,0 22.85712,0 37.85712,0c22.14285,0 37.48587,-0.44318 52.14285,-4.28574c13.34421,-3.49838 20,-7.85712 22.85715,-7.85712c5,0 7.14285,0 10,0l2.14285,0l2.85715,0" id="svg_4" fill-opacity="null" stroke-opacity="null" stroke-width="null" stroke="null" fill="none"/>
  <path d="m409.5,383.57141c2.14285,0 3.75473,-1.01346 7.14285,-2.14285c2.0329,-0.67764 5,0 10,0c2.14285,0 17.14285,0 25,0l2.14285,0l2.85715,0l2.14285,0" id="svg_5" fill-opacity="null" stroke-opacity="null" stroke-width="null" stroke="null" fill="none"/>
  <ellipse ry="38.57143" rx="37.5" id="svg_7" cy="259.99998" cx="197.00002" stroke-opacity="null" stroke-width="null" stroke="null" fill="#C48157"/>
  <ellipse id="svg_8" cy="318.57141" cx="261.64287" fill-opacity="null" stroke-opacity="null" stroke-width="null" stroke="null" fill="null"/>
  <ellipse ry="28.57143" rx="27.5" id="svg_11" cy="672.14281" cx="838.42855" stroke-opacity="null" stroke-width="null" stroke="null" fill="#C48157"/>
 </g>
</svg>